Coordinates
version=1
nRows=13
nColumns=40
inDegrees=yes

Units are S.I. units (second, meters, Newtons, ...)
Angles are in degrees.

endheader
time	pelvis_tilt	pelvis_list	pelvis_rotation	pelvis_tx	pelvis_ty	pelvis_tz	hip_flexion_r	hip_adduction_r	hip_rotation_r	knee_angle_r	knee_angle_r_beta	ankle_angle_r	subtalar_angle_r	mtp_angle_r	hip_flexion_l	hip_adduction_l	hip_rotation_l	knee_angle_l	knee_angle_l_beta	ankle_angle_l	subtalar_angle_l	mtp_angle_l	lumbar_extension	lumbar_bending	lumbar_rotation	arm_flex_r	arm_add_r	arm_rot_r	elbow_flex_r	pro_sup_r	wrist_flex_r	wrist_dev_r	arm_flex_l	arm_add_l	arm_rot_l	elbow_flex_l	pro_sup_l	wrist_flex_l	wrist_dev_l
      0.47000000	     -0.42951501	     11.18479720	     -2.17071332	     -0.73626687	      0.94030983	     -1.07404787	     -1.72352130	    -24.10678089	    -12.87361589	    -47.38911848	     -0.82709615	    -11.44797987	      3.80250337	     -9.55531884	     16.12249124	    -10.08715272	     10.22038925	    -17.87264853	     -0.31193656	     -0.91427067	      9.32322303	      0.17806756	     -1.89678943	    -12.99661787	      7.52479035	      4.87576905	     -9.64752630	     -9.68592420	     30.23395059	     89.95437384	      0.00000000	      0.00000000	    -13.14607435	     11.55675535	      9.72998986	      9.28674421	     89.95437384	      0.00000000	      0.00000000
      0.48000000	     -0.86791622	     11.11734250	     -2.17922732	     -0.72808402	      0.94093556	     -1.07662029	      0.57689994	    -24.11504679	    -12.24276429	    -49.94540563	     -0.87171177	    -11.15849896	      0.30549597	     -8.99319507	     15.90643794	    -10.20646168	     10.36684328	    -17.62297336	     -0.30757891	     -0.65313619	      9.46702866	      0.22131646	     -1.46133873	    -12.89285065	      7.46381640	      4.63105326	     -9.46677830	    -10.54517659	     29.88905206	     89.95437384	      0.00000000	      0.00000000	    -12.97723376	     11.62417572	      9.00659912	      9.38590765	     89.95437384	      0.00000000	      0.00000000
      0.49000000	     -0.76065194	     10.93846411	     -2.09876759	     -0.71972092	      0.94241384	     -1.07917613	      1.96855102	    -24.05845656	    -12.15476883	    -52.06526881	     -0.90871037	     -9.98998032	     -1.73269791	     -8.82279454	     15.00714473	    -10.25757029	     10.28849488	    -17.32215779	     -0.30232869	     -0.07630750	      8.94082527	      0.09168030	     -1.70889632	    -12.70001015	      7.02030725	      4.58040071	     -9.39127082	    -10.83229040	     29.47320497	     89.95437384	      0.00000000	      0.00000000	    -12.70042232	     11.62514583	      8.71112233	      9.43084162	     89.95437384	      0.00000000	      0.00000000
      0.50000000	     -1.09143731	     10.63589534	     -2.18706042	     -0.71176643	      0.94313133	     -1.08116360	      4.15256471	    -23.67446461	    -11.76788674	    -54.10152162	     -0.94424968	     -9.70311812	     -6.08488202	     -7.43902060	     14.74571528	    -10.01608648	     10.65513444	    -17.24984076	     -0.30106652	      0.21162919	      8.65169565	      0.00377586	     -1.44435907	    -12.37196936	      7.02768117	      4.38900037	     -9.27336098	    -11.61003337	     29.12963213	     89.95437384	      0.00000000	      0.00000000	    -12.41779383	     11.72882361	      7.92885893	      9.71493117	     89.95437384	      0.00000000	      0.00000000
      0.51000000	     -0.85644359	     10.42198855	     -2.21267568	     -0.70316153	      0.94465717	     -1.08343023	      5.33400140	    -23.54921356	    -11.85189157	    -55.64054947	     -0.97111079	     -8.38878965	     -8.23778635	     -7.06714936	     13.67085726	    -10.01101847	     10.53526174	    -16.87601041	     -0.29454195	      0.72529242	      8.15829377	     -0.13452679	     -1.78847397	    -12.12036284	      6.65050564	      4.31508152	     -9.25435440	    -11.81331719	     28.84098412	     89.95437384	      0.00000000	      0.00000000	    -12.04975825	     11.72921440	      7.80485145	      9.83221127	     89.95437384	      0.00000000	      0.00000000
      0.52000000	     -0.82016517	      9.91216542	     -2.35820476	     -0.69497527	      0.94595502	     -1.08493232	      6.95212890	    -22.84303071	    -11.71738976	    -57.21732024	     -0.99863063	     -5.28932748	    -11.45469867	     10.65571617	     12.95100948	     -9.52237381	     10.83627003	    -16.73527677	     -0.29208568	      0.97346305	      7.52925421	     -0.88349822	     -1.92249844	    -11.58740616	      6.51318688	      4.19736877	     -9.13436658	    -12.54626396	     28.56959800	     89.95437384	      0.00000000	      0.00000000	    -11.70666121	     11.76756027	      7.10670077	     10.15456207	     89.95437384	      0.00000000	      0.00000000
      0.53000000	     -0.59475016	      9.67436563	     -2.42514659	     -0.68655354	      0.94742730	     -1.08695420	      8.04040807	    -22.65511878	    -11.93358329	    -58.17202574	     -1.01529338	     -4.20673662	    -13.17652968	     10.54846945	     11.89089726	     -9.49522543	     10.62864434	    -16.32809799	     -0.28497907	      1.36829189	      7.30945521	     -0.96433278	     -2.27318888	    -11.33199284	      6.18013699	      4.14445598	     -9.15978681	    -12.57335953	     28.17141265	     89.95437384	      0.00000000	      0.00000000	    -11.21812770	     11.78385072	      6.95844437	     10.28162933	     89.95437384	      0.00000000	      0.00000000
      0.54000000	     -0.37140761	      9.37655862	     -2.49553443	     -0.67810307	      0.94882767	     -1.08883070	      9.11707993	    -22.30637760	    -12.07476437	    -58.85515821	     -1.02721629	     -3.49405409	    -14.98122627	     10.71635421	     10.79207181	     -9.40383415	     10.47756161	    -15.83648191	     -0.27639875	      1.69930219	      7.23659932	     -1.03387415	     -2.61545249	    -11.00450252	      5.82465162	      4.02411450	     -9.14877493	    -12.83939333	     28.11611556	     89.95437384	      0.00000000	      0.00000000	    -10.75471922	     11.80488633	      6.76753045	     10.52530732	     89.95437384	      0.00000000	      0.00000000
      0.55000000	     -0.14520240	      9.12055385	     -2.55000867	     -0.66969492	      0.95023381	     -1.09065563	     10.11733421	    -22.02875407	    -12.33760366	    -59.26108018	     -1.03430097	     -2.80977125	    -16.25045765	     10.90476911	      9.66073435	     -9.35934299	     10.35835201	    -15.31181224	     -0.26724154	      2.04502671	      7.09378006	     -1.10490311	     -2.95070619	    -10.73290664	      5.49569963	      3.93376150	     -9.15162859	    -12.97246298	     27.86211588	     89.95437384	      0.00000000	      0.00000000	    -10.19861344	     11.84984717	      6.39779645	     10.70630821	     89.95437384	      0.00000000	      0.00000000
      0.56000000	      0.05462955	      8.81662814	     -2.53846323	     -0.66148288	      0.95157578	     -1.09244925	     11.11407026	    -21.63956834	    -12.55345979	    -59.46268355	     -1.03781961	     -2.10306302	    -17.14458508	     11.14023821	      8.56247095	     -9.25103949	     10.27585153	    -14.77100874	     -0.25780274	      2.33078373	      6.93134344	     -1.15390659	     -3.31156716	    -10.39821138	      5.12588132	      3.80038902	     -9.20101260	    -13.04629931	     27.74169635	     89.95437384	      0.00000000	      0.00000000	     -9.55129215	     11.93213986	      6.14815336	     10.97760176	     89.95437384	      0.00000000	      0.00000000
      0.57000000	      0.72867372	      8.36382358	     -2.38152574	     -0.65294900	      0.95368354	     -1.09414922	     11.27938155	    -21.10536134	    -13.10545038	    -59.24369457	     -1.03399753	     -1.18057944	    -17.51968413	     13.57243143	      6.80906915	     -8.99697006	     10.10444855	    -14.03240895	     -0.24491174	      2.47025741	      6.62032697	     -1.25132586	     -4.21741651	     -9.92241389	      4.67951263	      3.61274337	     -9.23637042	    -13.38933718	     27.77287930	     89.95437384	      0.00000000	      0.00000000	     -8.94214733	     12.18799214	      4.28923631	     11.56592843	     89.95437384	      0.00000000	      0.00000000
      0.58000000	      0.65226805	      8.06219894	     -2.27306744	     -0.64520300	      0.95433645	     -1.09593056	     12.58993769	    -20.69075809	    -13.32104532	    -59.17539333	     -1.03280545	     -0.32687094	    -17.73026868	     13.74878235	      6.09198972	     -8.85252688	      9.99526763	    -13.57982194	     -0.23701260	      2.74546483	      6.29587118	     -1.32860652	     -4.29525101	     -9.56337797	      4.18348979	      3.49290712	     -9.27822731	    -13.40405807	     27.75754787	     89.95437384	      0.00000000	      0.00000000	     -8.27633542	     12.27239998	      4.25682019	     11.90355633	     89.95437384	      0.00000000	      0.00000000
      0.59000000	      0.57489091	      7.84210680	     -2.08380142	     -0.63741347	      0.95479240	     -1.09776795	     13.85482979	    -20.45747203	    -13.72423849	    -58.95533627	     -1.02896473	      0.04169005	    -17.71452195	     13.65263013	      5.49334762	     -8.74793171	     10.25845954	    -13.33364424	     -0.23271599	      2.98746720	      6.19039241	     -1.36444325	     -4.38874426	     -9.29135161	      3.62780276	      3.35219466	     -9.32939167	    -13.36068322	     27.71575993	     89.95437384	      0.00000000	      0.00000000	     -7.59059358	     12.38687633	      4.16420913	     12.27541181	     89.95437384	      0.00000000	      0.00000000
